<svg id="Group_1295" data-name="Group 1295" xmlns="http://www.w3.org/2000/svg" width="20.081" height="18.536" viewBox="0 0 20.081 18.536">
  <path id="Path_951" data-name="Path 951" d="M89.848,23.136,85.215,18.5a.743.743,0,0,0-.543-.229.841.841,0,0,0-.3.06.722.722,0,0,0-.471.712v2.317H81.968A19.719,19.719,0,0,0,79.6,21.5a12.791,12.791,0,0,0-1.925.368,7.834,7.834,0,0,0-1.5.585,6.426,6.426,0,0,0-1.14.742,4.705,4.705,0,0,0-.827.893,5.541,5.541,0,0,0-.567.983,5.683,5.683,0,0,0-.338,1.062,8.322,8.322,0,0,0-.169,1.086q-.042.507-.042,1.1a5.777,5.777,0,0,0,.211,1.473,9.607,9.607,0,0,0,.465,1.376q.253.579.6,1.2t.477.827q.133.2.253.374a.378.378,0,0,0,.314.157.654.654,0,0,0,.145-.024.372.372,0,0,0,.241-.41q-.543-4.055.893-5.708Q78.07,26,81.968,26H83.9v2.317a.721.721,0,0,0,.471.712.838.838,0,0,0,.3.06.718.718,0,0,0,.543-.229l4.634-4.634a.757.757,0,0,0,0-1.086Z" transform="translate(-69.997 -18.273)" fill="#03a1bc"/>
  <path id="Path_952" data-name="Path 952" d="M16.738,64.859a.359.359,0,0,0-.422.1,2.544,2.544,0,0,1-.652.447.38.38,0,0,0-.217.35v2.583a1.936,1.936,0,0,1-1.931,1.931H3.475A1.859,1.859,0,0,1,2.112,69.7a1.859,1.859,0,0,1-.567-1.364V58.294a1.859,1.859,0,0,1,.567-1.364,1.859,1.859,0,0,1,1.364-.567H4.827a.558.558,0,0,0,.193-.048,8.057,8.057,0,0,1,1.605-.724.352.352,0,0,0,.314-.386.391.391,0,0,0-.386-.386H3.476a3.348,3.348,0,0,0-2.456,1.02A3.348,3.348,0,0,0,0,58.294v10.04a3.348,3.348,0,0,0,1.02,2.456,3.348,3.348,0,0,0,2.456,1.02h10.04a3.482,3.482,0,0,0,3.476-3.476V65.209A.365.365,0,0,0,16.738,64.859Z" transform="translate(0 -53.274)" fill="#03a1bc"/>
</svg>
