<svg xmlns="http://www.w3.org/2000/svg" width="819.316" height="674.775" viewBox="0 0 819.316 674.775">
  <g id="Group_1369" data-name="Group 1369" transform="translate(196.315 -1853.617)">
    <g id="Path_997" data-name="Path 997" transform="matrix(0.996, 0.087, -0.087, 0.996, -37.397, 1921.542)" fill="none">
      <path d="M344.276,0,662.921,551.169-111.3,263.029Z" stroke="none"/>
      <path d="M 343.9108581542969 1.36566162109375 L -108.9639282226562 262.8330383300781 L 660.6632080078125 549.2615966796875 L 343.9108581542969 1.36566162109375 M 344.2763671875 -6.103515625e-05 L 662.9208374023438 551.1688232421875 L -111.3037109375 263.0292358398438 L 344.2763671875 -6.103515625e-05 Z" stroke="none" fill="#83ccdf"/>
    </g>
    <g id="Path_998" data-name="Path 998" transform="matrix(0.946, 0.326, -0.326, 0.946, 54.672, 1889.854)" fill="none">
      <path d="M180.824,0,385.146,353.421-111.3,168.66Z" stroke="none"/>
      <path d="M 180.4584350585938 1.365753173828125 L -108.9638977050781 168.4637451171875 L 382.887939453125 351.5140075683594 L 180.4584350585938 1.365753173828125 M 180.8239898681641 3.0517578125e-05 L 385.1456909179688 353.4212646484375 L -111.3037109375 168.6599578857422 L 180.8239898681641 3.0517578125e-05 Z" stroke="none" fill="rgba(36,49,57,0.16)"/>
    </g>
  </g>
</svg>
