<?xml version="1.0" encoding="UTF-8"?>
<svg width="32px" height="23px" viewBox="0 0 32 23" version="1.1" xmlns="http://www.w3.org/2000/svg" xmlns:xlink="http://www.w3.org/1999/xlink">
    <!-- Generator: Sketch 57.1 (83088) - https://sketch.com -->
    <title>white-arrow</title>
    <desc>Created with Sketch.</desc>
    <g id="Page-1" stroke="none" stroke-width="1" fill="none" fill-rule="evenodd">
        <g id="white-arrow" transform="translate(16.000000, 11.500000) rotate(-180.000000) translate(-16.000000, -11.500000) " fill="#FFFFFF" fill-rule="nonzero">
            <path d="M21.2,0.333 C20.7626173,-0.0840768626 20.072833,-0.0776294086 19.643323,0.347550351 C19.213813,0.77273011 19.2003764,1.46241366 19.613,1.904 L27.66,9.951 L1.111,9.951 C0.815762443,9.94966092 0.532244531,10.0664199 0.323571838,10.2752804 C0.114899146,10.4841409 -0.00160470364,10.7677638 -3.64507165e-05,11.063 C-0.00239557784,11.359859 0.113375011,11.645482 0.321786766,11.8568952 C0.53019852,12.0683084 0.814137111,12.1881509 1.111,12.19 L27.665,12.19 L19.618,20.226 C19.1888215,20.6679517 19.1888215,21.3710483 19.618,21.813 C19.8270975,22.0259789 20.1130342,22.145961 20.4115,22.145961 C20.7099658,22.145961 20.9959025,22.0259789 21.205,21.813 L31.157,11.861 C31.3698173,11.6550845 31.4899745,11.371629 31.4899745,11.0755 C31.4899745,10.779371 31.3698173,10.4959155 31.157,10.29 L21.2,0.333 Z" id="right-arrow_1_"></path>
        </g>
    </g>
</svg>